<?xml version="1.0" standalone="no"?>
<!DOCTYPE svg PUBLIC "-//W3C//DTD SVG 20010904//EN"
 "http://www.w3.org/TR/2001/REC-SVG-20010904/DTD/svg10.dtd">
<svg version="1.0" xmlns="http://www.w3.org/2000/svg"
 width="300.000000pt" height="193.000000pt" viewBox="0 0 300.000000 193.000000"
 preserveAspectRatio="xMidYMid meet">
<metadata>
Created by potrace 1.10, written by Peter Selinger 2001-2011
</metadata>
<g transform="translate(0.000000,193.000000) scale(0.100000,-0.100000)"
fill="#000000" stroke="none">
<path d="M1210 1535 l0 -276 -515 3 -515 3 0 -422 0 -423 905 0 905 0 0 -122
0 -123 272 2 272 2 -3 121 -3 120 156 0 156 0 0 423 0 422 -635 -3 -635 -2 0
275 0 275 -180 0 -180 0 0 -275z m320 -18 c5 -223 7 -247 24 -266 19 -21 22
-21 610 -21 325 0 601 -3 614 -6 l22 -6 -2 -377 -3 -376 -126 -5 c-165 -7
-169 -9 -169 -129 0 -47 -5 -93 -10 -101 -8 -12 -43 -15 -208 -16 -109 -1
-211 0 -225 3 -27 5 -27 6 -27 93 0 49 -3 96 -6 105 -18 45 -10 45 -934 45
l-870 0 0 379 c0 375 0 379 21 384 11 3 233 6 492 7 457 1 473 1 492 21 19 18
20 36 25 267 l5 247 115 5 c63 3 124 2 135 -1 19 -6 20 -17 25 -252z"/>
<path d="M1306 1578 c-14 -20 -16 -86 -16 -526 l0 -503 25 -24 c23 -24 29 -25
163 -25 200 0 186 -19 190 259 3 208 5 221 22 221 17 0 19 -13 22 -221 3 -218
3 -221 27 -240 18 -15 39 -19 103 -19 70 0 82 3 103 25 l25 24 0 294 0 294
-23 21 c-22 21 -31 22 -239 22 l-216 0 -4 23 c-2 12 -5 99 -7 192 -3 204 -4
205 -97 205 -54 0 -65 -3 -78 -22z m144 -224 l0 -215 240 3 240 3 0 -302 0
-303 -90 0 -90 0 0 240 0 240 -60 0 -60 0 0 -240 0 -240 -150 0 -150 0 0 515
0 515 60 0 60 0 0 -216z"/>
<path d="M287 1162 c-14 -15 -16 -58 -18 -322 -2 -373 -20 -340 185 -340 198
0 186 -17 186 258 0 186 2 213 16 219 9 3 20 0 25 -8 5 -8 9 -107 9 -220 0
-202 0 -206 23 -227 20 -19 35 -22 103 -22 71 0 83 3 102 23 21 22 22 32 22
228 0 112 4 210 9 218 5 8 16 11 25 8 14 -6 16 -33 16 -220 0 -210 0 -214 23
-235 20 -19 35 -22 103 -22 91 0 119 15 129 72 3 18 5 154 3 301 -3 269 -3
269 -27 288 -22 18 -45 19 -471 19 -416 0 -448 -1 -463 -18z m923 -319 l0
-303 -92 0 -93 0 3 240 3 240 -63 0 -63 0 3 -240 3 -240 -96 0 -96 0 3 240 3
240 -63 0 -63 0 3 -240 3 -240 -152 0 -153 0 0 303 0 302 455 0 455 0 0 -302z"/>
<path d="M2099 1161 l-24 -19 -3 -344 c-2 -311 -1 -346 15 -378 l18 -35 149
-3 c141 -2 150 -1 172 19 14 13 24 36 26 58 l3 36 125 3 c184 4 170 -24 170
344 0 285 -1 299 -20 318 -19 19 -33 20 -314 20 -274 0 -295 -1 -317 -19z
m621 -318 l0 -303 -155 0 -156 0 7 -60 7 -60 -157 0 -156 0 0 363 0 362 305 0
305 0 0 -302z"/>
<path d="M2475 840 l0 -150 63 0 62 0 0 150 0 150 -62 0 -63 0 0 -150z m83 20
c3 -96 -2 -130 -22 -130 -19 0 -26 32 -26 117 0 83 6 105 29 101 13 -3 17 -19
19 -88z"/>
</g>
</svg>
