 <svg  version="1.0" xmlns="http://www.w3.org/2000/svg"  width="300.000000pt" height="193.000000pt" viewBox="0 0 300.000000 193.000000"  preserveAspectRatio="xMidYMid meet">  <g transform="translate(0.000000,193.000000) scale(0.100000,-0.100000)" fill="#069307" stroke="none"> <path d="M1208 1538 l-3 -273 -513 -3 -512 -2 0 -420 0 -420 905 0 905 0 0 -120 0 -120 270 0 269 0 3 118 3 117 153 3 152 3 0 419 0 420 -635 0 -635 0 0 275 0 275 -180 0 -180 0 -2 -272z m242 -183 l0 -215 240 0 240 0 0 -300 0 -300 -90 0 -90 0 0 240 0 240 -60 0 -60 0 0 -240 0 -240 -150 0 -150 0 0 515 0 515 60 0 60 0 0 -215z m-240 -515 l0 -300 -90 0 -90 0 -2 238 -3 237 -57 3 -58 3 0 -241 0 -240 -95 0 -95 0 0 240 0 240 -60 0 -60 0 0 -240 0 -240 -150 0 -150 0 0 300 0 300 455 0 455 0 0 -300z m1510 0 l0 -300 -150 0 -150 0 0 -60 0 -60 -155 0 -155 0 0 360 0 360 305 0 305 0 0 -300z"/> <path d="M2480 840 l0 -150 55 0 55 0 0 150 0 150 -55 0 -55 0 0 -150z"/> </g> </svg> 